# xmcd
#
# Track frame offsets: 
#        150
#        9510
#        21145
#        29505
#        37712
#        46185
#        54222
#        61460
#        69455
#        76932
#        87827
#        93485
#        102335
#        110032
#        120787
#        127650
#        133680
#        140710
#        148757
#        158285
#        167680
#        173012
#        179682
#        187650
#        198075
#
# Disc length: 2776 seconds
#
# Revision: 0
# Processed by: cddbd v1.5.2PL0 Copyright (c) Steve Scherf et al.
# Submitted via: ExactAudioCopyFreeDBPlugin 1.0
#
DISCID=390ad619
DTITLE=Various Artist - よいこのどうよう
DYEAR=1997
DGENRE=Country
TTITLE0=春よこい
TTITLE1=みかんの花咲く丘
TTITLE2=くつがなる
TTITLE3=赤い帽子 白い帽子
TTITLE4=かもめの水兵さん
TTITLE5=しゃぼん玉
TTITLE6=かたつむり
TTITLE7=てるてる坊主
TTITLE8=雨ふり
TTITLE9=雨ふりお月
TTITLE10=肩たたき
TTITLE11=ないしょ話
TTITLE12=ふたあつ
TTITLE13=花嫁人形
TTITLE14=青い目の人形
TTITLE15=キューピーさん
TTITLE16=おうま
TTITLE17=めえめえ こやぎ
TTITLE18=おさるのかごや
TTITLE19=かわいい魚屋さん
TTITLE20=まっててね
TTITLE21=証城寺のたぬきばやし
TTITLE22=グッドバイ
TTITLE23=夕日
TTITLE24=夕やけ小やけ
EXTD=
EXTT0=
EXTT1=
EXTT2=
EXTT3=
EXTT4=
EXTT5=
EXTT6=
EXTT7=
EXTT8=
EXTT9=
EXTT10=
EXTT11=
EXTT12=
EXTT13=
EXTT14=
EXTT15=
EXTT16=
EXTT17=
EXTT18=
EXTT19=
EXTT20=
EXTT21=
EXTT22=
EXTT23=
EXTT24=
PLAYORDER=
